<svg xmlns="http://www.w3.org/2000/svg" viewBox="0 0 301 530"><defs><style>.cls-1{fill:#127557;}</style></defs><g id="Layer_2" data-name="Layer 2"><g id="Layer_1-2" data-name="Layer 1"><path class="cls-1" d="M241,410H228.24A59.84,59.84,0,0,0,246,367.5h0a60.18,60.18,0,0,0-60-60H167.24A59.84,59.84,0,0,0,185,265h0a60.18,60.18,0,0,0-60-60H109.24A59.84,59.84,0,0,0,127,162.5h0a60.18,60.18,0,0,0-60-60H57.24A59.84,59.84,0,0,0,75,60h0A60.18,60.18,0,0,0,15,0H0V530H241a60.18,60.18,0,0,0,60-60h0A60.18,60.18,0,0,0,241,410Z"/></g></g></svg>